<!DOCTYPE svg PUBLIC "-//W3C//DTD SVG 1.1//EN" "http://www.w3.org/Graphics/SVG/1.1/DTD/svg11.dtd">
<!-- Uploaded to: SVG Repo, www.svgrepo.com, Transformed by: SVG Repo Mixer Tools -->
<svg fill="#fff" width="177px" height="177px" viewBox="-3.6 -3.6 31.20 31.20" role="img" xmlns="http://www.w3.org/2000/svg" stroke="#fff" stroke-width="0.00024000000000000003">
<g id="SVGRepo_bgCarrier" stroke-width="0"/>
<g id="SVGRepo_tracerCarrier" stroke-linecap="round" stroke-linejoin="round" stroke="#CCCCCC" stroke-width="1.392">
<path d="M4.5 7.5A1.5 1.5 0 0 1 6 9v10.5A1.5 1.5 0 0 1 4.5 21h-3C.673 21 0 20.328 0 19.5V9c0-.828.673-1.5 1.5-1.5h3zm9-4.5A1.5 1.5 0 0 1 15 4.5v15a1.5 1.5 0 0 1-1.5 1.5h-3c-.827 0-1.5-.672-1.5-1.5v-15c0-.828.673-1.5 1.5-1.5h3zm9 7.5A1.5 1.5 0 0 1 24 12v7.5a1.5 1.5 0 0 1-1.5 1.5h-3a1.5 1.5 0 0 1-1.5-1.5V12a1.5 1.5 0 0 1 1.5-1.5h3z"/>
</g>
<g id="SVGRepo_iconCarrier">
<path d="M4.5 7.5A1.5 1.5 0 0 1 6 9v10.5A1.5 1.5 0 0 1 4.5 21h-3C.673 21 0 20.328 0 19.5V9c0-.828.673-1.5 1.5-1.5h3zm9-4.5A1.5 1.5 0 0 1 15 4.5v15a1.5 1.5 0 0 1-1.5 1.5h-3c-.827 0-1.5-.672-1.5-1.5v-15c0-.828.673-1.5 1.5-1.5h3zm9 7.5A1.5 1.5 0 0 1 24 12v7.5a1.5 1.5 0 0 1-1.5 1.5h-3a1.5 1.5 0 0 1-1.5-1.5V12a1.5 1.5 0 0 1 1.5-1.5h3z"/>
</g>
</svg>